<svg xmlns="http://www.w3.org/2000/svg" width="1000" height="1000" viewBox="0 0 1000 1000">
  <defs>
    <radialGradient id="bg" cx="50%" cy="35%" r="75%"><stop offset="0" stop-color="#ffffff"/><stop offset="1" stop-color="#e6edf5"/></radialGradient>
    <linearGradient id="body" x1="0" y1="0" x2="1" y2="0"><stop offset="0" stop-color="#eec134"/><stop offset="0.55" stop-color="#eab308"/><stop offset="1" stop-color="#a88106"/></linearGradient>
    <filter id="shadow" x="-20%" y="-20%" width="140%" height="140%"><feGaussianBlur stdDeviation="22"/></filter>
  </defs>
  <rect width="1000" height="1000" fill="url(#bg)"/>
  <ellipse cx="500" cy="840" rx="300" ry="40" fill="#0f172a" opacity="0.18" filter="url(#shadow)"/>
  
    <path d="M300 250 h280 a40 40 0 0 1 40 40 v470 a40 40 0 0 1 -40 40 h-320 a40 40 0 0 1 -40 -40 v-360 z" fill="url(#body)"/>
    <path d="M300 250 h-40 v110 z" fill="#b08606"/>
    <path d="M330 120 h60 v130 h-60 z" fill="#c79807"/>
    <rect x="310" y="90" width="100" height="50" rx="10" fill="#a16207"/>
    <path d="M430 175 h150 a30 30 0 0 1 30 30 v40 h-180 z" fill="#d3a107"/>
    <path d="M460 195 h100 a10 10 0 0 1 10 10 v10 h-120 v-10 a10 10 0 0 1 10 -10 z" fill="#987405"/>
    <rect x="290" y="320" width="18" height="430" rx="9" fill="#ffffff" opacity="0.18"/>
    
  <rect x="300" y="410" width="280" height="240" rx="18" fill="#ffffff" opacity="0.96"/>
  <rect x="300" y="410" width="280" height="14" rx="7" fill="#a16207"/>
  <text x="440" y="510.8" text-anchor="middle" font-family="Inter, Arial, sans-serif" font-weight="800" font-size="36.4" fill="#0f172a">BULAŞIK</text>
  <text x="440" y="558.8" text-anchor="middle" font-family="Inter, Arial, sans-serif" font-weight="600" font-size="22.567999999999998" fill="#a16207">4 L · LİMON</text>
  <text x="440" y="616.4" text-anchor="middle" font-family="Inter, Arial, sans-serif" font-weight="700" font-size="18.2" letter-spacing="3" fill="#94a3b8">TEMİZSTOK</text>
</svg>